<svg xmlns="http://www.w3.org/2000/svg" xmlns:xlink="http://www.w3.org/1999/xlink" viewBox="0 0 52 52" width="52" height="52" preserveAspectRatio="xMidYMid meet" style="width: 100%; height: 100%; transform: translate3d(0px, 0px, 0px); content-visibility: visible;"><defs><clipPath id="__lottie_element_57"><rect width="52" height="52" x="0" y="0"></rect></clipPath></defs><g clip-path="url(#__lottie_element_57)"><g transform="matrix(1,0,0,1,-0.0000057220458984375,0.3339977264404297)" opacity="1" style="display: block;"><g opacity="1" transform="matrix(1,0,0,1,0.0003337860107421875,0)"><path fill="rgb(253,23,115)" fill-opacity="1" d=" M24.14929962158203,8.84492015838623 C24.827899932861328,7.190159797668457 27.17140007019043,7.190159797668457 27.850099563598633,8.84492015838623 C27.850099563598633,8.84492015838623 31.210899353027344,17.0393009185791 31.210899353027344,17.0393009185791 C31.498199462890625,17.73979949951172 32.15639877319336,18.218000411987305 32.911399841308594,18.274700164794922 C32.911399841308594,18.274700164794922 41.74319839477539,18.938899993896484 41.74319839477539,18.938899993896484 C43.52669906616211,19.072999954223633 44.25090026855469,21.301799774169922 42.88690185546875,22.458599090576172 C42.88690185546875,22.458599090576172 36.13209915161133,28.18709945678711 36.13209915161133,28.18709945678711 C35.5546989440918,28.676799774169922 35.30329895019531,29.450599670410156 35.482601165771484,30.186100006103516 C35.482601165771484,30.186100006103516 37.580101013183594,38.79100036621094 37.580101013183594,38.79100036621094 C38.003700256347656,40.52859878540039 36.1077995300293,41.90610122680664 34.58610153198242,40.96620178222656 C34.58610153198242,40.96620178222656 27.050600051879883,36.31230163574219 27.050600051879883,36.31230163574219 C26.4064998626709,35.91450119018555 25.592899322509766,35.91450119018555 24.948699951171875,36.31230163574219 C24.948699951171875,36.31230163574219 17.41320037841797,40.96620178222656 17.41320037841797,40.96620178222656 C15.891500473022461,41.90610122680664 13.995599746704102,40.52859878540039 14.41919994354248,38.79100036621094 C14.41919994354248,38.79100036621094 16.516799926757812,30.186100006103516 16.516799926757812,30.186100006103516 C16.69610023498535,29.450599670410156 16.444700241088867,28.676799774169922 15.867300033569336,28.18709945678711 C15.867300033569336,28.18709945678711 9.112489700317383,22.458599090576172 9.112489700317383,22.458599090576172 C7.748439788818359,21.301799774169922 8.472610473632812,19.072999954223633 10.256099700927734,18.938899993896484 C10.256099700927734,18.938899993896484 19.08799934387207,18.274700164794922 19.08799934387207,18.274700164794922 C19.842899322509766,18.218000411987305 20.501100540161133,17.73979949951172 20.788400650024414,17.0393009185791 C20.788400650024414,17.0393009185791 24.14929962158203,8.84492015838623 24.14929962158203,8.84492015838623 C24.14929962158203,8.84492015838623 24.14929962158203,8.84492015838623 24.14929962158203,8.84492015838623z"></path></g><g opacity="0.3" transform="matrix(0.9999934434890747,0,0,0.9999934434890747,0.000217437744140625,0.00009441375732421875)"><path stroke-linecap="round" stroke-linejoin="miter" fill-opacity="0" stroke-miterlimit="4" stroke="rgb(253,23,115)" stroke-opacity="1" stroke-width="2.5" d=" M38.1338005065918,9.53345012664795 C38.1338005065918,9.53345012664795 34.4567985534668,13.210399627685547 34.4567985534668,13.210399627685547"></path></g><g opacity="0.3" transform="matrix(1,0,0,1,0,0)"><path stroke-linecap="round" stroke-linejoin="miter" fill-opacity="0" stroke-miterlimit="4" stroke="rgb(253,23,115)" stroke-opacity="1" stroke-width="2.5" d=" M13.86620044708252,9.53345012664795 C13.86620044708252,9.53345012664795 17.54319953918457,13.210399627685547 17.54319953918457,13.210399627685547"></path></g><g opacity="0.3" transform="matrix(1,0,0,1,0,0)"><path stroke-linecap="round" stroke-linejoin="miter" fill-opacity="0" stroke-miterlimit="4" stroke="rgb(253,23,115)" stroke-opacity="1" stroke-width="2.5" d=" M6.066410064697266,32.06669998168945 C6.066410064697266,32.06669998168945 11.089200019836426,30.720800399780273 11.089200019836426,30.720800399780273"></path></g><g opacity="0.3" transform="matrix(1,0,0,1,0,0)"><path stroke-linecap="round" stroke-linejoin="miter" fill-opacity="0" stroke-miterlimit="4" stroke="rgb(253,23,115)" stroke-opacity="1" stroke-width="2.5" d=" M45.93360137939453,32.06669998168945 C45.93360137939453,32.06669998168945 40.91080093383789,30.720800399780273 40.91080093383789,30.720800399780273"></path></g><g opacity="0.3" transform="matrix(1,0,0,1,0,0)"><path stroke-linecap="round" stroke-linejoin="miter" fill-opacity="0" stroke-miterlimit="4" stroke="rgb(253,23,115)" stroke-opacity="1" stroke-width="2.5" d=" M26,46.451698303222656 C26,46.451698303222656 26,41.25170135498047 26,41.25170135498047"></path></g></g></g></svg>