<?xml version="1.0" encoding="utf-8"?>
<!-- Generator: Adobe Illustrator 27.5.0, SVG Export Plug-In . SVG Version: 6.00 Build 0)  -->
<svg version="1.1" xmlns="http://www.w3.org/2000/svg" xmlns:xlink="http://www.w3.org/1999/xlink" x="0px" y="0px"
	 viewBox="0 0 500 500" style="enable-background:new 0 0 500 500;" xml:space="preserve">
<g id="BACKGROUND">
	<rect style="fill:#FDF7E3;" width="500" height="500"/>
</g>
<g id="OBJECTS">
	<g style="opacity:0.5;">
		<linearGradient id="SVGID_1_" gradientUnits="userSpaceOnUse" x1="250.5011" y1="421.6706" x2="250.5011" y2="172">
			<stop  offset="0" style="stop-color:#FBEFC8;stop-opacity:0"/>
			<stop  offset="0.1755" style="stop-color:#FAEDC3;stop-opacity:0.1755"/>
			<stop  offset="0.3575" style="stop-color:#F9E6B7;stop-opacity:0.3575"/>
			<stop  offset="0.5424" style="stop-color:#F6DBA2;stop-opacity:0.5424"/>
			<stop  offset="0.7293" style="stop-color:#F3CB85;stop-opacity:0.7293"/>
			<stop  offset="0.916" style="stop-color:#EEB760;stop-opacity:0.916"/>
			<stop  offset="1" style="stop-color:#ECAC4D"/>
		</linearGradient>
		<rect x="60.501" y="172" style="fill:url(#SVGID_1_);" width="380" height="249.671"/>
		<rect x="60.501" y="172" style="opacity:0.2;fill:#832B2A;" width="380" height="10"/>
		
			<linearGradient id="SVGID_00000095297851830929738070000006008830833533058197_" gradientUnits="userSpaceOnUse" x1="353.436" y1="421.6706" x2="353.436" y2="228.5162">
			<stop  offset="0" style="stop-color:#FBEFC8;stop-opacity:0"/>
			<stop  offset="0.1755" style="stop-color:#FAEDC3;stop-opacity:0.1755"/>
			<stop  offset="0.3575" style="stop-color:#F9E6B7;stop-opacity:0.3575"/>
			<stop  offset="0.5424" style="stop-color:#F6DBA2;stop-opacity:0.5424"/>
			<stop  offset="0.7293" style="stop-color:#F3CB85;stop-opacity:0.7293"/>
			<stop  offset="0.916" style="stop-color:#EEB760;stop-opacity:0.916"/>
			<stop  offset="1" style="stop-color:#ECAC4D"/>
		</linearGradient>
		
			<rect x="296.371" y="228.516" style="fill:url(#SVGID_00000095297851830929738070000006008830833533058197_);" width="114.13" height="193.154"/>
		<g>
			<path style="fill:#A1C084;" d="M395.284,304.879c0,0,18.807-8.044,34.309,10.711c0.448-29.415,17.712-50.814,17.712-50.814
				s15.28,19.709,8.277,64.519c5.207-8.361,21.896-8.605,21.896-8.605l-35.333,62.306
				C440.697,382.504,395.284,304.879,395.284,304.879z"/>
			
				<linearGradient id="SVGID_00000129198986715271171090000003259099082105169292_" gradientUnits="userSpaceOnUse" x1="437.452" y1="442.5533" x2="437.452" y2="375.014">
				<stop  offset="0" style="stop-color:#FBEFC8;stop-opacity:0"/>
				<stop  offset="0.0529" style="stop-color:#F8E5B5;stop-opacity:0.0529"/>
				<stop  offset="0.1584" style="stop-color:#F5D395;stop-opacity:0.1584"/>
				<stop  offset="0.2732" style="stop-color:#F1C57B;stop-opacity:0.2732"/>
				<stop  offset="0.3989" style="stop-color:#EFBA66;stop-opacity:0.3989"/>
				<stop  offset="0.541" style="stop-color:#EDB258;stop-opacity:0.541"/>
				<stop  offset="0.7134" style="stop-color:#ECAD50;stop-opacity:0.7134"/>
				<stop  offset="1" style="stop-color:#ECAC4D"/>
			</linearGradient>
			<path style="fill:url(#SVGID_00000129198986715271171090000003259099082105169292_);" d="M447.346,442.553h-19.788
				c-13.255,0-24-10.745-24-24v-33.539c0-5.523,4.477-10,10-10h47.788c5.523,0,10,4.477,10,10v33.539
				C471.346,431.808,460.601,442.553,447.346,442.553z"/>
		</g>
		<g>
			<path style="fill:#A1C084;" d="M102.177,309.884c0,0-16.549-13.049-32.627-5.005c-0.448-29.415-17.713-40.103-17.713-40.103
				s-8.255,21.76-8.277,64.519c-4.242-13.705-13.31-14.829-13.31-14.829l26.747,68.531
				C58.445,382.504,65.884,318.507,102.177,309.884z"/>
			
				<linearGradient id="SVGID_00000169536564134674200320000016488858409476094130_" gradientUnits="userSpaceOnUse" x1="437.4521" y1="442.5533" x2="437.4521" y2="375.014" gradientTransform="matrix(-1 0 0 1 499.1424 0)">
				<stop  offset="0" style="stop-color:#FBEFC8;stop-opacity:0"/>
				<stop  offset="0.0529" style="stop-color:#F8E5B5;stop-opacity:0.0529"/>
				<stop  offset="0.1584" style="stop-color:#F5D395;stop-opacity:0.1584"/>
				<stop  offset="0.2732" style="stop-color:#F1C57B;stop-opacity:0.2732"/>
				<stop  offset="0.3989" style="stop-color:#EFBA66;stop-opacity:0.3989"/>
				<stop  offset="0.541" style="stop-color:#EDB258;stop-opacity:0.541"/>
				<stop  offset="0.7134" style="stop-color:#ECAD50;stop-opacity:0.7134"/>
				<stop  offset="1" style="stop-color:#ECAC4D"/>
			</linearGradient>
			<path style="fill:url(#SVGID_00000169536564134674200320000016488858409476094130_);" d="M51.796,442.553h19.788
				c13.255,0,24-10.745,24-24v-33.539c0-5.523-4.477-10-10-10H37.796c-5.523,0-10,4.477-10,10v33.539
				C27.796,431.808,38.541,442.553,51.796,442.553z"/>
		</g>
		<g>
			
				<linearGradient id="SVGID_00000067916621140221322400000008291337923326400673_" gradientUnits="userSpaceOnUse" x1="221.5986" y1="218.9001" x2="221.5986" y2="446.275">
				<stop  offset="0" style="stop-color:#B2B9D3"/>
				<stop  offset="0.0476" style="stop-color:#B9BED2;stop-opacity:0.9524"/>
				<stop  offset="0.2905" style="stop-color:#D5D3CD;stop-opacity:0.7095"/>
				<stop  offset="0.5323" style="stop-color:#EAE3CA;stop-opacity:0.4677"/>
				<stop  offset="0.7703" style="stop-color:#F7ECC8;stop-opacity:0.2297"/>
				<stop  offset="1" style="stop-color:#FBEFC8;stop-opacity:0"/>
			</linearGradient>
			
				<rect x="178.566" y="326.094" style="fill:url(#SVGID_00000067916621140221322400000008291337923326400673_);" width="86.065" height="46.288"/>
			
				<linearGradient id="SVGID_00000000183742669654448440000013368726879791805615_" gradientUnits="userSpaceOnUse" x1="133.5336" y1="218.8995" x2="133.5336" y2="446.2753">
				<stop  offset="0" style="stop-color:#B2B9D3"/>
				<stop  offset="0.0476" style="stop-color:#B9BED2;stop-opacity:0.9524"/>
				<stop  offset="0.2905" style="stop-color:#D5D3CD;stop-opacity:0.7095"/>
				<stop  offset="0.5323" style="stop-color:#EAE3CA;stop-opacity:0.4677"/>
				<stop  offset="0.7703" style="stop-color:#F7ECC8;stop-opacity:0.2297"/>
				<stop  offset="1" style="stop-color:#FBEFC8;stop-opacity:0"/>
			</linearGradient>
			
				<rect x="90.501" y="277.805" style="fill:url(#SVGID_00000000183742669654448440000013368726879791805615_);" width="86.065" height="46.289"/>
			
				<linearGradient id="SVGID_00000127027281623661791160000010288322345198619051_" gradientUnits="userSpaceOnUse" x1="133.5336" y1="218.9001" x2="133.5336" y2="446.275">
				<stop  offset="0" style="stop-color:#B2B9D3"/>
				<stop  offset="0.0476" style="stop-color:#B9BED2;stop-opacity:0.9524"/>
				<stop  offset="0.2905" style="stop-color:#D5D3CD;stop-opacity:0.7095"/>
				<stop  offset="0.5323" style="stop-color:#EAE3CA;stop-opacity:0.4677"/>
				<stop  offset="0.7703" style="stop-color:#F7ECC8;stop-opacity:0.2297"/>
				<stop  offset="1" style="stop-color:#FBEFC8;stop-opacity:0"/>
			</linearGradient>
			
				<rect x="90.501" y="326.094" style="fill:url(#SVGID_00000127027281623661791160000010288322345198619051_);" width="86.065" height="46.288"/>
			
				<linearGradient id="SVGID_00000176038831066436223260000013694763753727305367_" gradientUnits="userSpaceOnUse" x1="221.5986" y1="218.8997" x2="221.5986" y2="446.2751">
				<stop  offset="0" style="stop-color:#B2B9D3"/>
				<stop  offset="0.0476" style="stop-color:#B9BED2;stop-opacity:0.9524"/>
				<stop  offset="0.2905" style="stop-color:#D5D3CD;stop-opacity:0.7095"/>
				<stop  offset="0.5323" style="stop-color:#EAE3CA;stop-opacity:0.4677"/>
				<stop  offset="0.7703" style="stop-color:#F7ECC8;stop-opacity:0.2297"/>
				<stop  offset="1" style="stop-color:#FBEFC8;stop-opacity:0"/>
			</linearGradient>
			
				<rect x="178.566" y="228.516" style="fill:url(#SVGID_00000176038831066436223260000013694763753727305367_);" width="86.065" height="47.289"/>
			
				<linearGradient id="SVGID_00000031926306417444904910000009230821710192989081_" gradientUnits="userSpaceOnUse" x1="221.5986" y1="218.8995" x2="221.5986" y2="446.2753">
				<stop  offset="0" style="stop-color:#B2B9D3"/>
				<stop  offset="0.0476" style="stop-color:#B9BED2;stop-opacity:0.9524"/>
				<stop  offset="0.2905" style="stop-color:#D5D3CD;stop-opacity:0.7095"/>
				<stop  offset="0.5323" style="stop-color:#EAE3CA;stop-opacity:0.4677"/>
				<stop  offset="0.7703" style="stop-color:#F7ECC8;stop-opacity:0.2297"/>
				<stop  offset="1" style="stop-color:#FBEFC8;stop-opacity:0"/>
			</linearGradient>
			
				<rect x="178.566" y="277.805" style="fill:url(#SVGID_00000031926306417444904910000009230821710192989081_);" width="86.065" height="46.289"/>
			
				<linearGradient id="SVGID_00000071520407408811855010000002934078960177041794_" gradientUnits="userSpaceOnUse" x1="221.5986" y1="218.8999" x2="221.5986" y2="446.2753">
				<stop  offset="0" style="stop-color:#B2B9D3"/>
				<stop  offset="0.0476" style="stop-color:#B9BED2;stop-opacity:0.9524"/>
				<stop  offset="0.2905" style="stop-color:#D5D3CD;stop-opacity:0.7095"/>
				<stop  offset="0.5323" style="stop-color:#EAE3CA;stop-opacity:0.4677"/>
				<stop  offset="0.7703" style="stop-color:#F7ECC8;stop-opacity:0.2297"/>
				<stop  offset="1" style="stop-color:#FBEFC8;stop-opacity:0"/>
			</linearGradient>
			
				<rect x="178.566" y="374.382" style="fill:url(#SVGID_00000071520407408811855010000002934078960177041794_);" width="86.065" height="47.289"/>
			
				<linearGradient id="SVGID_00000149342324753508009360000015807523539245397683_" gradientUnits="userSpaceOnUse" x1="133.5336" y1="218.8999" x2="133.5336" y2="446.2753">
				<stop  offset="0" style="stop-color:#B2B9D3"/>
				<stop  offset="0.0476" style="stop-color:#B9BED2;stop-opacity:0.9524"/>
				<stop  offset="0.2905" style="stop-color:#D5D3CD;stop-opacity:0.7095"/>
				<stop  offset="0.5323" style="stop-color:#EAE3CA;stop-opacity:0.4677"/>
				<stop  offset="0.7703" style="stop-color:#F7ECC8;stop-opacity:0.2297"/>
				<stop  offset="1" style="stop-color:#FBEFC8;stop-opacity:0"/>
			</linearGradient>
			
				<rect x="90.501" y="374.382" style="fill:url(#SVGID_00000149342324753508009360000015807523539245397683_);" width="86.065" height="47.289"/>
			
				<linearGradient id="SVGID_00000083771750987546037410000006156812133524552600_" gradientUnits="userSpaceOnUse" x1="133.5336" y1="218.8997" x2="133.5336" y2="446.2751">
				<stop  offset="0" style="stop-color:#B2B9D3"/>
				<stop  offset="0.0476" style="stop-color:#B9BED2;stop-opacity:0.9524"/>
				<stop  offset="0.2905" style="stop-color:#D5D3CD;stop-opacity:0.7095"/>
				<stop  offset="0.5323" style="stop-color:#EAE3CA;stop-opacity:0.4677"/>
				<stop  offset="0.7703" style="stop-color:#F7ECC8;stop-opacity:0.2297"/>
				<stop  offset="1" style="stop-color:#FBEFC8;stop-opacity:0"/>
			</linearGradient>
			
				<rect x="90.501" y="228.516" style="fill:url(#SVGID_00000083771750987546037410000006156812133524552600_);" width="86.065" height="47.289"/>
		</g>
		<g>
			<rect x="30.251" y="150" style="fill:#9F3D34;" width="440" height="22"/>
			<g>
				<defs>
					<polygon id="XMLID_1_" points="470.251,150 30.251,150 47.851,40 452.651,40 					"/>
				</defs>
				
					<linearGradient id="XMLID_00000083798668344629675510000010468912651259503275_" gradientUnits="userSpaceOnUse" x1="250.2506" y1="150" x2="250.2506" y2="40">
					<stop  offset="0.3" style="stop-color:#832B2A"/>
					<stop  offset="0.7743" style="stop-color:#842D2B;stop-opacity:0.8811"/>
					<stop  offset="0.945" style="stop-color:#883431;stop-opacity:0.8383"/>
					<stop  offset="1" style="stop-color:#8B3834;stop-opacity:0.8245"/>
				</linearGradient>
				
					<use xlink:href="#XMLID_1_"  style="overflow:visible;fill:url(#XMLID_00000083798668344629675510000010468912651259503275_);"/>
				<clipPath id="XMLID_00000058549577369058409870000006513231446854503865_">
					<use xlink:href="#XMLID_1_"  style="overflow:visible;"/>
				</clipPath>
				<g style="clip-path:url(#XMLID_00000058549577369058409870000006513231446854503865_);">
					
						<linearGradient id="SVGID_00000170995476029340102220000002631812906169012121_" gradientUnits="userSpaceOnUse" x1="438.2223" y1="150.4224" x2="438.2223" y2="39.5776">
						<stop  offset="0.3" style="stop-color:#ECAC4D"/>
						<stop  offset="1" style="stop-color:#FBEFC8;stop-opacity:0"/>
					</linearGradient>
					
						<line style="fill:none;stroke:url(#SVGID_00000170995476029340102220000002631812906169012121_);stroke-width:6;stroke-miterlimit:10;" x1="446.044" y1="150" x2="430.4" y2="40"/>
					
						<linearGradient id="SVGID_00000054967253779969885230000010438182781917845422_" gradientUnits="userSpaceOnUse" x1="414.7556" y1="150.3705" x2="414.7556" y2="39.6295">
						<stop  offset="0.3" style="stop-color:#ECAC4D"/>
						<stop  offset="1" style="stop-color:#FBEFC8;stop-opacity:0"/>
					</linearGradient>
					
						<line style="fill:none;stroke:url(#SVGID_00000054967253779969885230000010438182781917845422_);stroke-width:6;stroke-miterlimit:10;" x1="421.6" y1="150" x2="407.911" y2="40"/>
					
						<linearGradient id="SVGID_00000042720472095323584030000003819962445807877809_" gradientUnits="userSpaceOnUse" x1="391.2889" y1="150.3182" x2="391.2889" y2="39.6818">
						<stop  offset="0.3" style="stop-color:#ECAC4D"/>
						<stop  offset="1" style="stop-color:#FBEFC8;stop-opacity:0"/>
					</linearGradient>
					
						<line style="fill:none;stroke:url(#SVGID_00000042720472095323584030000003819962445807877809_);stroke-width:6;stroke-miterlimit:10;" x1="397.156" y1="150" x2="385.422" y2="40"/>
					
						<linearGradient id="SVGID_00000119827742324669219500000017548903492117698728_" gradientUnits="userSpaceOnUse" x1="367.8223" y1="150.2656" x2="367.8223" y2="39.7344">
						<stop  offset="0.3" style="stop-color:#ECAC4D"/>
						<stop  offset="1" style="stop-color:#FBEFC8;stop-opacity:0"/>
					</linearGradient>
					
						<line style="fill:none;stroke:url(#SVGID_00000119827742324669219500000017548903492117698728_);stroke-width:6;stroke-miterlimit:10;" x1="372.711" y1="150" x2="362.933" y2="40"/>
					
						<linearGradient id="SVGID_00000007393144079713547330000014808308279127912379_" gradientUnits="userSpaceOnUse" x1="344.3556" y1="150.2128" x2="344.3556" y2="39.7872">
						<stop  offset="0.3" style="stop-color:#ECAC4D"/>
						<stop  offset="1" style="stop-color:#FBEFC8;stop-opacity:0"/>
					</linearGradient>
					
						<line style="fill:none;stroke:url(#SVGID_00000007393144079713547330000014808308279127912379_);stroke-width:6;stroke-miterlimit:10;" x1="348.267" y1="150" x2="340.444" y2="40"/>
					
						<linearGradient id="SVGID_00000153687602990571772750000001177385450240452010_" gradientUnits="userSpaceOnUse" x1="320.8889" y1="150.1598" x2="320.8889" y2="39.8402">
						<stop  offset="0.3" style="stop-color:#ECAC4D"/>
						<stop  offset="1" style="stop-color:#FBEFC8;stop-opacity:0"/>
					</linearGradient>
					
						<line style="fill:none;stroke:url(#SVGID_00000153687602990571772750000001177385450240452010_);stroke-width:6;stroke-miterlimit:10;" x1="323.822" y1="150" x2="317.956" y2="40"/>
					
						<linearGradient id="SVGID_00000181073731453462195780000012075337929332383402_" gradientUnits="userSpaceOnUse" x1="297.4223" y1="150.1066" x2="297.4223" y2="39.8934">
						<stop  offset="0.3" style="stop-color:#ECAC4D"/>
						<stop  offset="1" style="stop-color:#FBEFC8;stop-opacity:0"/>
					</linearGradient>
					
						<line style="fill:none;stroke:url(#SVGID_00000181073731453462195780000012075337929332383402_);stroke-width:6;stroke-miterlimit:10;" x1="299.378" y1="150" x2="295.467" y2="40"/>
					
						<linearGradient id="SVGID_00000004534193999059461850000002210242519388170155_" gradientUnits="userSpaceOnUse" x1="273.9557" y1="150.0533" x2="273.9557" y2="39.9467">
						<stop  offset="0.3" style="stop-color:#ECAC4D"/>
						<stop  offset="1" style="stop-color:#FBEFC8;stop-opacity:0"/>
					</linearGradient>
					
						<line style="fill:none;stroke:url(#SVGID_00000004534193999059461850000002210242519388170155_);stroke-width:6;stroke-miterlimit:10;" x1="274.933" y1="150" x2="272.978" y2="40"/>
					
						<linearGradient id="SVGID_00000141450160334445606090000017176400119184065688_" gradientUnits="userSpaceOnUse" x1="250.489" y1="150" x2="250.489" y2="40">
						<stop  offset="0.3" style="stop-color:#ECAC4D"/>
						<stop  offset="1" style="stop-color:#FBEFC8;stop-opacity:0"/>
					</linearGradient>
					
						<line style="fill:none;stroke:url(#SVGID_00000141450160334445606090000017176400119184065688_);stroke-width:6;stroke-miterlimit:10;" x1="250.489" y1="150" x2="250.489" y2="40"/>
					
						<linearGradient id="SVGID_00000103958429727516125790000005334250535191720354_" gradientUnits="userSpaceOnUse" x1="227.0223" y1="150.0533" x2="227.0223" y2="39.9467">
						<stop  offset="0.3" style="stop-color:#ECAC4D"/>
						<stop  offset="1" style="stop-color:#FBEFC8;stop-opacity:0"/>
					</linearGradient>
					
						<line style="fill:none;stroke:url(#SVGID_00000103958429727516125790000005334250535191720354_);stroke-width:6;stroke-miterlimit:10;" x1="226.044" y1="150" x2="228" y2="40"/>
					
						<linearGradient id="SVGID_00000175307070997371789010000010393523821486306181_" gradientUnits="userSpaceOnUse" x1="203.5547" y1="162" x2="203.5547" y2="39.8934">
						<stop  offset="0.3" style="stop-color:#ECAC4D"/>
						<stop  offset="1" style="stop-color:#FBEFC8;stop-opacity:0"/>
					</linearGradient>
					
						<polyline style="fill:none;stroke:url(#SVGID_00000175307070997371789010000010393523821486306181_);stroke-width:6;stroke-miterlimit:10;" points="
						205.511,40 201.6,150 201.6,162 					"/>
					
						<linearGradient id="SVGID_00000049204295748738533840000015658608396108233880_" gradientUnits="userSpaceOnUse" x1="180.0889" y1="150.1598" x2="180.0889" y2="39.8402">
						<stop  offset="0.3" style="stop-color:#ECAC4D"/>
						<stop  offset="1" style="stop-color:#FBEFC8;stop-opacity:0"/>
					</linearGradient>
					
						<line style="fill:none;stroke:url(#SVGID_00000049204295748738533840000015658608396108233880_);stroke-width:6;stroke-miterlimit:10;" x1="177.156" y1="150" x2="183.022" y2="40"/>
					
						<linearGradient id="SVGID_00000171700421331745345720000014955745731543451805_" gradientUnits="userSpaceOnUse" x1="156.6223" y1="150.2128" x2="156.6223" y2="39.7872">
						<stop  offset="0.3" style="stop-color:#ECAC4D"/>
						<stop  offset="1" style="stop-color:#FBEFC8;stop-opacity:0"/>
					</linearGradient>
					
						<line style="fill:none;stroke:url(#SVGID_00000171700421331745345720000014955745731543451805_);stroke-width:6;stroke-miterlimit:10;" x1="152.711" y1="150" x2="160.533" y2="40"/>
					
						<linearGradient id="SVGID_00000023962027716905238760000013343991115145369490_" gradientUnits="userSpaceOnUse" x1="133.1556" y1="150.2656" x2="133.1556" y2="39.7344">
						<stop  offset="0.3" style="stop-color:#ECAC4D"/>
						<stop  offset="1" style="stop-color:#FBEFC8;stop-opacity:0"/>
					</linearGradient>
					
						<line style="fill:none;stroke:url(#SVGID_00000023962027716905238760000013343991115145369490_);stroke-width:6;stroke-miterlimit:10;" x1="128.267" y1="150" x2="138.044" y2="40"/>
					
						<linearGradient id="SVGID_00000039814761111134731340000009709180269529594037_" gradientUnits="userSpaceOnUse" x1="109.6889" y1="150.3182" x2="109.6889" y2="39.6818">
						<stop  offset="0.3" style="stop-color:#ECAC4D"/>
						<stop  offset="1" style="stop-color:#FBEFC8;stop-opacity:0"/>
					</linearGradient>
					
						<line style="fill:none;stroke:url(#SVGID_00000039814761111134731340000009709180269529594037_);stroke-width:6;stroke-miterlimit:10;" x1="103.822" y1="150" x2="115.556" y2="40"/>
					
						<linearGradient id="SVGID_00000090262211351513965130000011257356699354365833_" gradientUnits="userSpaceOnUse" x1="86.2223" y1="150.3705" x2="86.2223" y2="39.6295">
						<stop  offset="0.3" style="stop-color:#ECAC4D"/>
						<stop  offset="1" style="stop-color:#FBEFC8;stop-opacity:0"/>
					</linearGradient>
					
						<line style="fill:none;stroke:url(#SVGID_00000090262211351513965130000011257356699354365833_);stroke-width:6;stroke-miterlimit:10;" x1="79.378" y1="150" x2="93.067" y2="40"/>
					
						<linearGradient id="SVGID_00000006684741593777564820000016088359726996934585_" gradientUnits="userSpaceOnUse" x1="62.7556" y1="150.4224" x2="62.7556" y2="39.5776">
						<stop  offset="0.3" style="stop-color:#ECAC4D"/>
						<stop  offset="1" style="stop-color:#FBEFC8;stop-opacity:0"/>
					</linearGradient>
					
						<line style="fill:none;stroke:url(#SVGID_00000006684741593777564820000016088359726996934585_);stroke-width:6;stroke-miterlimit:10;" x1="54.933" y1="150" x2="70.578" y2="40"/>
				</g>
				
					<line style="clip-path:url(#XMLID_00000058549577369058409870000006513231446854503865_);fill:none;stroke:#F4D771;stroke-width:4;stroke-miterlimit:10;" x1="30.251" y1="150" x2="470.251" y2="150"/>
			</g>
			<g>
				<line style="fill:none;stroke:#ECAC4D;stroke-width:6;stroke-miterlimit:10;" x1="54.933" y1="150" x2="54.933" y2="172"/>
				<line style="fill:none;stroke:#ECAC4D;stroke-width:6;stroke-miterlimit:10;" x1="79.379" y1="150" x2="79.379" y2="172"/>
				<line style="fill:none;stroke:#ECAC4D;stroke-width:6;stroke-miterlimit:10;" x1="103.825" y1="150" x2="103.825" y2="172"/>
				<line style="fill:none;stroke:#ECAC4D;stroke-width:6;stroke-miterlimit:10;" x1="128.271" y1="150" x2="128.271" y2="172"/>
				<line style="fill:none;stroke:#ECAC4D;stroke-width:6;stroke-miterlimit:10;" x1="152.717" y1="150" x2="152.717" y2="172"/>
				<line style="fill:none;stroke:#ECAC4D;stroke-width:6;stroke-miterlimit:10;" x1="177.163" y1="150" x2="177.163" y2="172"/>
				<line style="fill:none;stroke:#ECAC4D;stroke-width:6;stroke-miterlimit:10;" x1="201.609" y1="150" x2="201.609" y2="172"/>
				<line style="fill:none;stroke:#ECAC4D;stroke-width:6;stroke-miterlimit:10;" x1="226.055" y1="150" x2="226.055" y2="172"/>
				<line style="fill:none;stroke:#ECAC4D;stroke-width:6;stroke-miterlimit:10;" x1="250.501" y1="150" x2="250.501" y2="172"/>
				<line style="fill:none;stroke:#ECAC4D;stroke-width:6;stroke-miterlimit:10;" x1="274.947" y1="150" x2="274.947" y2="172"/>
				<line style="fill:none;stroke:#ECAC4D;stroke-width:6;stroke-miterlimit:10;" x1="299.393" y1="150" x2="299.393" y2="172"/>
				<line style="fill:none;stroke:#ECAC4D;stroke-width:6;stroke-miterlimit:10;" x1="323.839" y1="150" x2="323.839" y2="172"/>
				<line style="fill:none;stroke:#ECAC4D;stroke-width:6;stroke-miterlimit:10;" x1="348.285" y1="150" x2="348.285" y2="172"/>
				<line style="fill:none;stroke:#ECAC4D;stroke-width:6;stroke-miterlimit:10;" x1="372.731" y1="150" x2="372.731" y2="172"/>
				<line style="fill:none;stroke:#ECAC4D;stroke-width:6;stroke-miterlimit:10;" x1="397.177" y1="150" x2="397.177" y2="172"/>
				<line style="fill:none;stroke:#ECAC4D;stroke-width:6;stroke-miterlimit:10;" x1="421.623" y1="150" x2="421.623" y2="172"/>
				<line style="fill:none;stroke:#ECAC4D;stroke-width:6;stroke-miterlimit:10;" x1="446.069" y1="150" x2="446.069" y2="172"/>
			</g>
		</g>
		<g>
			<rect x="165.81" y="121.984" style="opacity:0.2;fill:#832B2A;" width="165.228" height="82.614"/>
			<rect x="167.463" y="119.505" style="fill:#FFFFFF;" width="165.228" height="82.614"/>
			<text transform="matrix(1 0 0 1 180.1309 178.3105)" style="fill:#CB8391; font-family:'Amita-Regular'; font-size:50.3946px;">Coffee</text>
			
				<rect x="170.767" y="122.81" style="fill:none;stroke:#291342;stroke-width:0.5;stroke-miterlimit:10;" width="158.619" height="76.005"/>
		</g>
	</g>
	<g>
		<ellipse style="fill:#F0D1B0;" cx="59.417" cy="456.648" rx="30" ry="2.5"/>
		<ellipse style="fill:#F0D1B0;" cx="209.464" cy="456.648" rx="30" ry="2.5"/>
		<ellipse style="fill:#F0D1B0;" cx="133.836" cy="456.648" rx="50" ry="2.5"/>
		<ellipse style="fill:#F0D1B0;" cx="326.898" cy="456.648" rx="30" ry="2.5"/>
		<ellipse style="fill:#F0D1B0;" cx="438.832" cy="456.648" rx="30" ry="2.5"/>
		<ellipse style="fill:#F0D1B0;" cx="380.04" cy="456.648" rx="50" ry="2.5"/>
	</g>
	<g>
		<g>
			<g>
				<g>
					<rect x="132.583" y="370.097" style="fill:#A5B7C6;" width="4" height="73.956"/>
					<path style="fill:#A5B7C6;" d="M104.583,445.075v12.573h4v-10.573c0-1.105,0.895-2,2-2h48c1.105,0,2,0.895,2,2v10.573h4
						v-12.573c0-2.209-1.791-4-4-4h-52C106.374,441.075,104.583,442.866,104.583,445.075z"/>
				</g>
				<path style="fill:#E0A15E;" d="M134.583,361.388c-23.307,0-42.202,1.966-42.202,4.391v3.662c0,2.425,18.894,4.391,42.202,4.391
					c23.307,0,42.202-1.966,42.202-4.391v-3.662C176.785,363.354,157.89,361.388,134.583,361.388z"/>
				<path style="fill:#857EB2;" d="M149.999,358.305l0.249-1.443h-10.329l1.163,6.734c2.979,3.249,6.789,2.072,7.979-0.623
					c0.25-0.565,0.833-0.902,1.446-0.826c0.25,0.031,0.505,0.053,0.722,0.053c1.681,0,2.91-1.934,1.582-3.698
					C151.783,357.708,150.728,357.791,149.999,358.305z M151.23,361.245c-0.657,0-1.189-0.532-1.189-1.189
					c0-0.657,0.532-1.189,1.189-1.189c0.657,0,1.189,0.532,1.189,1.189C152.419,360.712,151.886,361.245,151.23,361.245z"/>
				<path style="fill:#A5B7C6;" d="M116.438,358.501c-1.328,1.764-0.099,3.698,1.582,3.698c0.217,0,0.472-0.022,0.722-0.053
					c0.613-0.076,1.197,0.261,1.446,0.826c1.19,2.695,5,3.872,7.979,0.623l1.163-6.734h-10.329l0.249,1.443
					C118.521,357.791,117.467,357.708,116.438,358.501z M116.831,360.056c0-0.657,0.532-1.189,1.189-1.189s1.189,0.532,1.189,1.189
					c0,0.657-0.532,1.189-1.189,1.189S116.831,360.712,116.831,360.056z"/>
				<path style="fill:none;stroke:#291342;stroke-width:0.5;stroke-miterlimit:10;" d="M165.641,368.752
					c-7.712,0.872-18.772,1.418-31.059,1.418c-23.307,0-42.202-1.966-42.202-4.391"/>
				<path style="fill:none;stroke:#291342;stroke-width:0.5;stroke-miterlimit:10;" d="M176.785,365.779
					c0,0.934-2.802,1.8-7.579,2.511"/>
			</g>
			<g>
				<path style="fill:#E0A15E;" d="M68.418,395.385H34.415v-33.096c0-9.39,7.612-17.002,17.002-17.002l0,0
					c9.39,0,17.002,7.612,17.002,17.002V395.385z"/>
				<path style="fill:none;stroke:#291342;stroke-width:0.5;stroke-miterlimit:10;" d="M36.415,395.385v-33.096
					c0-3.521,1.07-6.792,2.904-9.506"/>
				<rect x="34.415" y="395.385" style="fill:#E0A15E;" width="48.343" height="4"/>
				<rect x="34.415" y="399.385" style="fill:#E0A15E;" width="3" height="56.87"/>
				<rect x="75.758" y="399.385" style="fill:#E0A15E;" width="3" height="56.87"/>
				<rect x="65.418" y="399.385" style="fill:#E0A15E;" width="3" height="56.87"/>
				<rect x="49.917" y="399.385" style="fill:#E0A15E;" width="3" height="56.87"/>
				
					<line style="fill:none;stroke:#291342;stroke-width:0.5;stroke-miterlimit:10;" x1="34.415" y1="399.614" x2="37.415" y2="399.614"/>
				
					<line style="fill:none;stroke:#291342;stroke-width:0.5;stroke-miterlimit:10;" x1="49.917" y1="399.614" x2="52.917" y2="399.614"/>
				
					<line style="fill:none;stroke:#291342;stroke-width:0.5;stroke-miterlimit:10;" x1="65.418" y1="399.614" x2="68.418" y2="399.614"/>
				
					<line style="fill:none;stroke:#291342;stroke-width:0.5;stroke-miterlimit:10;" x1="75.758" y1="399.614" x2="78.758" y2="399.614"/>
				<rect x="34.415" y="393.608" style="fill:#E0A15E;" width="48.343" height="1.777"/>
				
					<line style="fill:none;stroke:#291342;stroke-width:0.5;stroke-miterlimit:10;" x1="68.418" y1="395.385" x2="34.415" y2="395.385"/>
			</g>
			<g>
				<path style="fill:#E0A15E;" d="M195.956,395.385h34.003v-33.096c0-9.39-7.612-17.002-17.002-17.002l0,0
					c-9.39,0-17.002,7.612-17.002,17.002V395.385z"/>
				<path style="fill:none;stroke:#291342;stroke-width:0.5;stroke-miterlimit:10;" d="M227.959,395.385v-33.096
					c0-3.521-1.07-6.792-2.904-9.506"/>
				<rect x="181.616" y="395.385" style="fill:#E0A15E;" width="48.343" height="4"/>
				
					<rect x="226.959" y="399.385" transform="matrix(-1 -1.224647e-16 1.224647e-16 -1 456.9182 855.6392)" style="fill:#E0A15E;" width="3" height="56.87"/>
				
					<rect x="185.616" y="399.385" transform="matrix(-1 -1.224647e-16 1.224647e-16 -1 374.2324 855.6392)" style="fill:#E0A15E;" width="3" height="56.87"/>
				
					<rect x="195.956" y="399.385" transform="matrix(-1 -1.224647e-16 1.224647e-16 -1 394.9116 855.6392)" style="fill:#E0A15E;" width="3" height="56.87"/>
				
					<rect x="211.457" y="399.385" transform="matrix(-1 -1.224647e-16 1.224647e-16 -1 425.915 855.6392)" style="fill:#E0A15E;" width="3" height="56.87"/>
				
					<line style="fill:none;stroke:#291342;stroke-width:0.5;stroke-miterlimit:10;" x1="229.959" y1="399.614" x2="226.959" y2="399.614"/>
				
					<line style="fill:none;stroke:#291342;stroke-width:0.5;stroke-miterlimit:10;" x1="214.457" y1="399.614" x2="211.457" y2="399.614"/>
				
					<line style="fill:none;stroke:#291342;stroke-width:0.5;stroke-miterlimit:10;" x1="198.956" y1="399.614" x2="195.956" y2="399.614"/>
				
					<line style="fill:none;stroke:#291342;stroke-width:0.5;stroke-miterlimit:10;" x1="188.616" y1="399.614" x2="185.616" y2="399.614"/>
				
					<rect x="181.616" y="393.608" transform="matrix(-1 -1.224647e-16 1.224647e-16 -1 411.5753 788.9922)" style="fill:#E0A15E;" width="48.343" height="1.777"/>
				
					<line style="fill:none;stroke:#291342;stroke-width:0.5;stroke-miterlimit:10;" x1="195.956" y1="395.385" x2="229.959" y2="395.385"/>
			</g>
			<g>
				<path style="fill:#3A66CF;" d="M71.827,319.169c-12.298,4.059-17.421,8.694-17.421,8.694s-11.146,43.581,16.072,52.215
					c14.284,4.531,21.469,1.183,30.855-20.118c5.965-13.537,4.111-33.555,3.754-38.104c0,0-4.769-2.497-10.523-4.207
					C87.489,313.72,74.115,316.082,71.827,319.169z"/>
				<path style="fill:#FEAB81;" d="M75.774,325.126c1.201,3.992,3.707,9.323,8.927,13.531c0,0,6.392-5.935,7.415-14.745
					c0.394-3.393-2.056-6.463-5.454-6.819c-0.611-0.064-1.284-0.1-2.027-0.1c-1.494,0-2.864,0.148-4.077,0.37
					C76.976,318.017,74.724,321.638,75.774,325.126z"/>
				<path style="fill:#FEC4A7;" d="M78.477,309.361c0.494,4.912,3.678,8.615,7.112,8.269c3.434-0.345,5.816-4.608,5.322-9.52
					c-0.494-4.912-3.678-8.615-7.112-8.269S77.983,304.449,78.477,309.361z"/>
				<path style="fill:#FEC4A7;" d="M76.474,310.823c0.017,1.059,0.631,1.908,1.371,1.896c0.74-0.012,1.327-0.88,1.31-1.939
					s-0.631-1.908-1.371-1.896C77.043,308.896,76.457,309.764,76.474,310.823z"/>
				<path style="fill:#FF902C;" d="M90.971,310.793l-1.175,2.817l0,0c-0.584-0.797-1.513-1.267-2.501-1.267h-3.231
					c-0.95,0-1.847,0.435-2.435,1.18l-0.068,0.087c0,0-2.006-0.352-2.745-3.726H78.43l0.214,8.051c0,3.404,2.759,6.163,6.163,6.163
					l0,0c3.404,0,6.163-2.76,6.163-6.163V310.793z"/>
				<path style="fill:#9F3D34;" d="M64.205,394.563l-11.164,54.512h4.927c0,0,12.626-35.758,12.626-45.327l-3.897-10.14
					L64.205,394.563z"/>
				<polygon style="fill:#291342;" points="53.041,449.075 52.07,453.298 43.891,457.648 55.716,457.648 57.969,449.075 				"/>
				<path style="fill:#9F3D34;" d="M54.641,373.027c0,0-3.448,4.136-4.598,9.836c-1.623,8.048,5.324,13.747,14.033,12.329
					l2.621-1.585l16.663,43.353l3.642-1.15L78.1,385.583C78.1,385.583,60.042,374.69,54.641,373.027z"/>
				<polyline style="fill:none;stroke:#291342;stroke-width:0.5;stroke-miterlimit:10;" points="64.076,394.563 66.568,393.608 
					70.945,404.994 				"/>
				<path style="fill:none;stroke:#291342;stroke-width:0.5;stroke-miterlimit:10;" d="M66.697,393.608c0,0-1.83-2.816,0-7.039"/>
				<g>
					<path style="fill:#FEC4A7;" d="M93.611,366.036l-0.704,0.85c-3.001,3.622-4.644,8.179-4.644,12.883v8.982
						c0,0,0,2.147,1.408,0.598c0.905-0.995,1.13-3.736,1.13-3.736s1.992,1.167,2.555-0.733c0,0,1.383,0.894,1.876-1.735
						c0,0,1.478,0.186,1.549-1.644c0.07-1.83,0-9.01,0-9.01c2.215-0.996,4.147-1.958,5.84-2.871
						C101.799,366.987,98.124,363.24,93.611,366.036z"/>
					<path style="fill:#3A66CF;" d="M105.086,321.857c0,0-8.263,4.171-6.898,14.876c1.995,15.651,1.971,21.469,1.971,21.469
						s-3.377,2.48-5.631,4.726c-1.836,1.829-0.917,3.108-0.917,3.108c4.513-2.796,8.188,0.951,9.01,3.584
						c8.478-4.572,10.806-7.899,10.806-7.899C116.664,345.269,105.086,321.857,105.086,321.857z"/>
				</g>
				<g>
					<path style="fill:none;stroke:#291342;stroke-width:0.5;stroke-miterlimit:10;" d="M102.177,324.098
						c-2.229,2.247-4.797,6.295-3.989,12.634c1.995,15.651,1.971,21.469,1.971,21.469s-3.377,2.48-5.631,4.726
						c-1.836,1.829-0.917,3.108-0.917,3.108"/>
				</g>
				<path style="fill:#291342;" d="M83.36,436.961c0,0-0.614,2.416-2.031,5.983l8.597-2.821l-2.924-4.312L83.36,436.961z"/>
				<path style="fill:none;stroke:#291342;stroke-width:0.5;stroke-miterlimit:10;" d="M71.174,322.818
					c-0.482,4.209-0.417,11.151,4.067,15.838l0.282-6.851l1.616,1.722"/>
				<path style="fill:none;stroke:#291342;stroke-width:0.5;stroke-miterlimit:10;" d="M95.985,321.856
					c0.857,3.768,1.157,9.511-2.604,14.877l-2.41-4.083l-1.229,1.126"/>
				<path style="fill:none;stroke:#291342;stroke-width:0.5;stroke-miterlimit:10;" d="M94.563,317.65c0,0,0.703,0.857,0.703,1.715"
					/>
				<path style="fill:#3A66CF;" d="M67.146,370.097c0,0,1.619-3.942-1.971-6.617l0.473-22.994
					c0.127-6.154-4.236-11.66-10.331-12.522c-0.296-0.042-0.6-0.076-0.912-0.101c0,0-18.204,37.276,1.83,48.991
					c0.028,0.016,0.056,0.033,0.084,0.049C56.708,373.159,59.97,367.107,67.146,370.097z"/>
				<path style="fill:none;stroke:#291342;stroke-width:0.5;stroke-miterlimit:10;" d="M67.146,370.097c0,0,1.619-3.942-1.971-6.617
					l0.473-22.994c0.079-3.818-1.571-7.387-4.29-9.751"/>
				<path style="fill:#FEC4A7;" d="M84.115,388.624c-0.228-1.538-0.943-2.964-2.029-4.077l-3.656-3.75l-11.284-10.699
					c-7.176-2.99-10.438,3.062-10.827,6.806c6.905,4.035,17.514,9.806,17.514,9.806l2.664,8.121c0,0,0.679,1.628,1.797,0.358
					c0,0,0.748,0.918,1.7,0.212l0.082,0.308c0.174,0.653,0.915,0.969,1.507,0.642l0,0c0.235-0.13,0.392-0.367,0.42-0.634
					l0.381-3.663c0,0,0.573,3.536,0.812,4.966c0.352,2.112,1.619,1.76,1.419-3.479C84.55,391.871,84.325,390.038,84.115,388.624z"/>
				<path style="fill:none;stroke:#291342;stroke-width:0.5;stroke-miterlimit:10;" d="M57.279,363.171
					c4.518-1.959,7.896,0.309,7.896,0.309"/>
				<path style="fill:none;stroke:#291342;stroke-width:0.5;stroke-miterlimit:10;" d="M57.171,351.585c0,0,1.069,5.007,5.487,9.628
					"/>
				<path style="fill:none;stroke:#291342;stroke-width:0.5;stroke-miterlimit:10;" d="M68.985,371.841
					c0,0,23.494-0.618,27.545-24.456"/>
			</g>
			<g>
				<path style="fill:#CB8391;" d="M191.561,337.849c0,0,1.056,1.187,1.033,11.043c-0.029,12.206-2.142,25.958-9.151,22.613
					c-9.422-4.496-20.554-10.117-20.554-10.117s6.194-1.066,3.754-5.794l15.251,5.794
					C181.894,361.388,181.753,337.057,191.561,337.849z"/>
				<path style="fill:#FEC4A7;" d="M166.643,355.595l-1.821-0.694c-1.625-0.619-3.35-0.937-5.089-0.937h-2.092
					c-0.398,0-0.752,0.252-0.882,0.628l0,0c-0.184,0.532,0.142,1.104,0.693,1.218l1.965,0.407c0,0-9.479-0.175-10.136-0.141
					c-0.489,0.026-1.126,1.361,1.502,1.549l12.107,3.764C162.889,361.388,168.895,360.416,166.643,355.595z"/>
				<path style="fill:#CB8391;" d="M182.38,336.733c0,0-7.186,18.19,7.965,21.047c0,0,2.798,7.872,6.53,19.699l17.879-3.58
					c4.927-18.038,2.628-41.531-11.122-41.499C185.777,332.441,182.38,336.733,182.38,336.733z"/>
				<polygon style="fill:#FEC4A7;" points="190.667,336.135 188.625,320.746 182.38,325.368 183.172,340.064 188.84,345.738 				"/>
				<path style="fill:#FEC4A7;" d="M177.505,320.011c-0.046,4.478,2.454,8.134,5.584,8.166c3.13,0.032,5.704-3.572,5.75-8.049
					c0.046-4.478-2.454-8.134-5.584-8.166C180.126,311.93,177.551,315.533,177.505,320.011z"/>
				<path style="fill:#291342;" d="M182.287,312.72c0,0-1.965,8.026,5.482,10.098c0,0-2.69,9.951,4.671,14.781
					c1.168,0.766,1.958,1.979,2.146,3.364c0.346,2.553,1.471,6.066,5.104,4.105c5.443-2.938,10.012-13.658,15.264-8.274
					c0,0-2.127-4.207-5.769-5.609c-1.234-0.475-2.138-1.563-2.19-2.884c-0.086-2.195-0.86-5.301-4.266-6.798
					c-1.827-0.803-3.151-2.434-3.776-4.329c-1.851-5.617-6.895-15.103-18.691-7.288c0,0-9.568-0.004-6.454,12.343
					c0.29,1.149,0.279,2.351-0.069,3.483c-0.858,2.79-1.725,8.532,4.136,11.771c1.461,0.807,2.268,2.434,1.962,4.075
					c-0.501,2.688-0.591,6.861,2.124,10.841c1.477,2.166,4.961,1.284,5.07-1.335c0.065-1.562-0.351-3.346-1.577-5.324
					c0,0,1.552-5.636,1.068-10.313c-0.416-4.021-4.002-7.274-4.002-7.274S174.209,321.857,182.287,312.72z"/>
				<path style="fill:#FEC4A7;" d="M188.263,373.027l-3.246,0.869c-1.662,0.445-3.023,1.637-3.684,3.226l-1.527,3.674l8.844-1.502
					l1.695-0.177c-1.044-2.251-1.381-4.657-1.478-6.214C188.486,372.989,188.263,373.027,188.263,373.027z"/>
				<path style="fill:#CB8391;" d="M211.328,335.372c-7.967,1.361-6.308,21.85-7.133,30.664c0,0-12.952,6.335-15.328,6.868
					c0.097,1.557,0.433,3.964,1.478,6.214l21.358-7.277C221.277,345.738,216.99,334.404,211.328,335.372z"/>
				<path style="fill:none;stroke:#291342;stroke-width:0.5;stroke-miterlimit:10;" d="M194.134,377.827l14.766-5.03
					c1.791-0.61,3.205-2.023,3.818-3.814c2.849-8.326,4.214-15.025,4.553-20.188"/>
				<path style="fill:none;stroke:#291342;stroke-width:0.5;stroke-miterlimit:10;" d="M205.788,343.348
					c-1.532,7.11-1.077,17.179-1.592,22.688c0,0-5.051,2.413-9.513,4.451"/>
				<polygon style="fill:#B2B9D3;" points="172.848,399.301 172.097,445.075 176.227,445.075 183.11,392.81 				"/>
				<path style="fill:#B2B9D3;" d="M214.754,373.758c0,0,2.625,4.191,2.517,10.005c-0.144,7.733-4.181,11.405-12.081,11.531
					l-25.384-0.129l-27.326,34.277l-3.642-1.15l23.024-45.137c0.917-1.798,2.649-3.033,4.649-3.308
					C185.436,378.618,210.337,375.117,214.754,373.758z"/>
				<polygon style="fill:#291342;" points="148.838,428.293 138.31,434.152 147.77,435.979 154.983,426.303 147.883,422.89 				"/>
				<polygon style="fill:#291342;" points="168.156,444.054 179.043,444.054 177.604,450.248 176.227,457.648 168.156,457.648 
					172.097,454.269 				"/>
				<polyline style="fill:none;stroke:#291342;stroke-width:0.5;stroke-miterlimit:10;" points="172.771,403.989 179.806,395.165 
					182.798,395.18 				"/>
				<path style="fill:none;stroke:#291342;stroke-width:0.5;stroke-miterlimit:10;" d="M191.719,361.212
					c0,0-3.573-2.019-4.136-4.814"/>
				<path style="fill:none;stroke:#291342;stroke-width:0.5;stroke-miterlimit:10;" d="M181.894,361.388
					c0,0,1.889,0.403,2.029,2.092"/>
			</g>
		</g>
		<g>
			<g>
				<path style="fill:#E0A15E;" d="M338.169,395.385h-34.003v-33.096c0-9.39,7.612-17.002,17.002-17.002h0
					c9.39,0,17.002,7.612,17.002,17.002V395.385z"/>
				<path style="fill:none;stroke:#291342;stroke-width:0.5;stroke-miterlimit:10;" d="M306.165,395.385v-33.096
					c0-3.521,1.07-6.792,2.904-9.506"/>
				<rect x="304.165" y="395.385" style="fill:#E0A15E;" width="48.343" height="4"/>
				<rect x="304.165" y="399.385" style="fill:#E0A15E;" width="3" height="56.87"/>
				<rect x="345.508" y="399.385" style="fill:#E0A15E;" width="3" height="56.87"/>
				<rect x="335.169" y="399.385" style="fill:#E0A15E;" width="3" height="56.87"/>
				<rect x="319.667" y="399.385" style="fill:#E0A15E;" width="3" height="56.87"/>
				
					<line style="fill:none;stroke:#291342;stroke-width:0.5;stroke-miterlimit:10;" x1="304.165" y1="399.614" x2="307.165" y2="399.614"/>
				
					<line style="fill:none;stroke:#291342;stroke-width:0.5;stroke-miterlimit:10;" x1="319.667" y1="399.614" x2="322.667" y2="399.614"/>
				
					<line style="fill:none;stroke:#291342;stroke-width:0.5;stroke-miterlimit:10;" x1="335.169" y1="399.614" x2="338.169" y2="399.614"/>
				
					<line style="fill:none;stroke:#291342;stroke-width:0.5;stroke-miterlimit:10;" x1="345.508" y1="399.614" x2="348.508" y2="399.614"/>
				<rect x="304.165" y="393.608" style="fill:#E0A15E;" width="48.343" height="1.777"/>
				
					<line style="fill:none;stroke:#291342;stroke-width:0.5;stroke-miterlimit:10;" x1="338.169" y1="395.385" x2="304.165" y2="395.385"/>
			</g>
			<g>
				<path style="fill:#E0A15E;" d="M431.582,395.385h34.003v-33.096c0-9.39-7.612-17.002-17.002-17.002l0,0
					c-9.39,0-17.002,7.612-17.002,17.002V395.385z"/>
				<path style="fill:none;stroke:#291342;stroke-width:0.5;stroke-miterlimit:10;" d="M463.585,395.385v-33.096
					c0-3.521-1.07-6.792-2.904-9.506"/>
				<rect x="417.242" y="395.385" style="fill:#E0A15E;" width="48.343" height="4"/>
				
					<rect x="462.585" y="399.385" transform="matrix(-1 -1.224647e-16 1.224647e-16 -1 928.1702 855.6392)" style="fill:#E0A15E;" width="3" height="56.87"/>
				
					<rect x="421.242" y="399.385" transform="matrix(-1 -1.224647e-16 1.224647e-16 -1 845.4844 855.6392)" style="fill:#E0A15E;" width="3" height="56.87"/>
				
					<rect x="431.582" y="399.385" transform="matrix(-1 -1.224647e-16 1.224647e-16 -1 866.1636 855.6392)" style="fill:#E0A15E;" width="3" height="56.87"/>
				
					<rect x="447.083" y="399.385" transform="matrix(-1 -1.224647e-16 1.224647e-16 -1 897.167 855.6392)" style="fill:#E0A15E;" width="3" height="56.87"/>
				
					<line style="fill:none;stroke:#291342;stroke-width:0.5;stroke-miterlimit:10;" x1="465.585" y1="399.614" x2="462.585" y2="399.614"/>
				
					<line style="fill:none;stroke:#291342;stroke-width:0.5;stroke-miterlimit:10;" x1="450.083" y1="399.614" x2="447.083" y2="399.614"/>
				
					<line style="fill:none;stroke:#291342;stroke-width:0.5;stroke-miterlimit:10;" x1="434.582" y1="399.614" x2="431.582" y2="399.614"/>
				
					<line style="fill:none;stroke:#291342;stroke-width:0.5;stroke-miterlimit:10;" x1="424.242" y1="399.614" x2="421.242" y2="399.614"/>
				
					<rect x="417.242" y="393.608" transform="matrix(-1 -1.224647e-16 1.224647e-16 -1 882.8273 788.9922)" style="fill:#E0A15E;" width="48.343" height="1.777"/>
				
					<line style="fill:none;stroke:#291342;stroke-width:0.5;stroke-miterlimit:10;" x1="431.582" y1="395.385" x2="465.585" y2="395.385"/>
			</g>
			<g>
				<g>
					<path style="fill:#CB8391;" d="M413.098,379.294c10.828-1.516,30.254-4.329,34.106-5.516c0,0,2.625,4.191,2.517,10.005
						c-0.144,7.733-4.181,11.405-12.081,11.531l-18.591-0.094C422.21,392.971,423.908,380.895,413.098,379.294z"/>
					<path style="fill:#FEC4A7;" d="M401.463,386.172c-0.334-2.95,1.764-5.62,4.71-5.991c2.92-0.368,6.111-0.772,6.925-0.886
						c11.283-1.386,9.112,13.677,5.952,15.927l-6.794-0.034l-0.551,54.183h-3.642L401.463,386.172z"/>
					<polygon style="fill:#291342;" points="408.063,449.37 402.206,457.648 411.84,457.648 412.094,414.588 400.859,414.588 					
						"/>
				</g>
				<path style="fill:none;stroke:#291342;stroke-width:0.5;stroke-miterlimit:10;" d="M426.211,392.831c0,0,2.255-6.199-1.83-9.902
					"/>
			</g>
			<g>
				<g>
					<path style="fill:#CB8391;" d="M425.098,379.294c10.828-1.516,30.254-4.329,34.106-5.516c0,0,2.625,4.191,2.517,10.005
						c-0.144,7.733-4.181,11.405-12.081,11.531l-18.591-0.094C434.21,392.971,435.908,380.895,425.098,379.294z"/>
					<path style="fill:#FEC4A7;" d="M413.463,386.172c-0.334-2.95,1.764-5.62,4.71-5.991c2.92-0.368,6.111-0.772,6.925-0.886
						c11.283-1.386,9.112,13.677,5.952,15.927l-6.794-0.034l-0.551,54.183h-3.642L413.463,386.172z"/>
					<path style="fill:none;stroke:#291342;stroke-width:0.5;stroke-miterlimit:10;" d="M414.958,399.358l-1.495-13.186
						c-0.334-2.95,1.764-5.62,4.71-5.991"/>
					<polygon style="fill:#291342;" points="420.063,449.37 414.206,457.648 423.84,457.648 424.094,414.588 412.859,414.588 					
						"/>
				</g>
				<path style="fill:none;stroke:#291342;stroke-width:0.5;stroke-miterlimit:10;" d="M438.211,392.831c0,0,2.255-6.199-1.83-9.902
					"/>
			</g>
			<g>
				<path style="fill:#857EB2;" d="M342.61,341.519l7.097,39.594l-9.208-2.569c0,0-20.947-24.144-9.714-37.025
					C342.017,328.638,342.61,341.519,342.61,341.519z"/>
				<path style="fill:#857EB2;" d="M342.533,342.002l7.039,20.364c0,0,3.473-2.44,6.382-7.321h4.974l-5.83,15.284
					c-1.065,2.425-3.463,3.991-6.112,3.991h-0.624L342.533,342.002z"/>
				<path style="fill:#FEC4A7;" d="M363.276,348.693c0,0,3.72-1.14,6.572-0.129l-1.141,0.736c0,0-2.782,0.171-4.2,2.186
					c-0.271,0.385,7.411,1.948,7.411,1.948s-0.74,1.029-1.615,0.919c-0.875-0.109-4.963-0.152-4.963-0.152l4.747,1.297
					c0,0-0.715,0.873-1.451,0.691c-0.736-0.182-4.676-0.068-4.676-0.068l3.093,1.184c0,0-1.158,0.887-1.696,0.55
					c-0.538-0.336-2.219-0.591-2.219-0.591l-1.328,1.082c0,0-8.051-0.284-5.387-5.131
					C359.087,348.369,363.276,348.693,363.276,348.693z"/>
				<path style="fill:none;stroke:#291342;stroke-width:0.5;stroke-miterlimit:10;" d="M350.916,369.159c0,0-0.985,1.114,0,2.856"/>
				<g>
					<g>
						<rect x="378.04" y="370.097" style="fill:#A5B7C6;" width="4" height="73.956"/>
						<path style="fill:#A5B7C6;" d="M350.04,445.075v12.573h4v-10.573c0-1.105,0.895-2,2-2h48c1.105,0,2,0.895,2,2v10.573h4
							v-12.573c0-2.209-1.791-4-4-4h-52C351.831,441.075,350.04,442.866,350.04,445.075z"/>
					</g>
					<path style="fill:#E0A15E;" d="M380.04,361.388c-23.308,0-42.202,1.966-42.202,4.391v3.662c0,2.425,18.894,4.391,42.202,4.391
						c23.307,0,42.202-1.966,42.202-4.391v-3.662C422.242,363.354,403.348,361.388,380.04,361.388z"/>
					<path style="fill:#857EB2;" d="M412.184,358.305l0.249-1.443h-10.329l1.163,6.734c2.979,3.249,6.789,2.072,7.979-0.623
						c0.25-0.565,0.833-0.902,1.446-0.826c0.25,0.031,0.505,0.053,0.722,0.053c1.681,0,2.91-1.934,1.582-3.698
						C413.968,357.708,412.913,357.791,412.184,358.305z M413.415,361.245c-0.657,0-1.189-0.532-1.189-1.189
						c0-0.657,0.532-1.189,1.189-1.189c0.657,0,1.189,0.532,1.189,1.189C414.604,360.712,414.072,361.245,413.415,361.245z"/>
					<path style="fill:#A5B7C6;" d="M362.156,358.501c-1.328,1.764-0.099,3.698,1.582,3.698c0.217,0,0.472-0.022,0.722-0.053
						c0.613-0.076,1.197,0.261,1.446,0.826c1.19,2.695,5,3.872,7.979,0.623l1.163-6.734H364.72l0.249,1.443
						C364.24,357.791,363.185,357.708,362.156,358.501z M362.549,360.056c0-0.657,0.532-1.189,1.189-1.189
						c0.657,0,1.189,0.532,1.189,1.189c0,0.657-0.532,1.189-1.189,1.189C363.082,361.245,362.549,360.712,362.549,360.056z"/>
					<path style="fill:none;stroke:#291342;stroke-width:0.5;stroke-miterlimit:10;" d="M411.099,368.752
						c-7.712,0.872-18.772,1.418-31.059,1.418c-23.307,0-42.202-1.966-42.202-4.391"/>
					<path style="fill:none;stroke:#291342;stroke-width:0.5;stroke-miterlimit:10;" d="M421.079,366.807
						c-1.245,0.54-3.45,1.041-6.416,1.483"/>
				</g>
				<path style="fill:#FEC4A7;" d="M338.36,319.447c-1.027,4.359,0.61,8.474,3.657,9.192c3.046,0.718,6.349-2.234,7.376-6.592
					c1.027-4.359-0.61-8.474-3.657-9.192C342.69,312.136,339.387,315.088,338.36,319.447z"/>
				<g>
					<polygon style="fill:#FEC4A7;" points="353.949,399.301 354.7,445.075 350.571,445.075 343.688,392.81 					"/>
					<polygon style="fill:#291342;" points="358.642,444.054 347.755,444.054 349.194,450.248 350.571,457.648 358.642,457.648 
						354.7,454.269 					"/>
				</g>
				<g>
					<path style="fill:#9F3D34;" d="M346.15,379.273c-10.828-1.516-30.255-4.33-34.106-5.516c0,0-2.625,4.191-2.517,10.005
						c0.144,7.733,4.181,11.405,12.081,11.531l18.591-0.094C337.038,392.95,335.34,380.873,346.15,379.273z"/>
					<path style="fill:#FEC4A7;" d="M354.936,383.156c-0.917-1.798-2.649-3.032-4.649-3.308c-1.142-0.157-2.548-0.352-4.137-0.575
						c-10.81,1.6-9.113,13.677-5.952,15.926l6.794-0.034l27.326,34.277l3.642-1.15L354.936,383.156z"/>
					<polygon style="fill:#291342;" points="377.96,428.293 388.487,434.152 379.027,435.979 371.815,426.303 378.914,422.89 					
						"/>
				</g>
				<g>
					<path style="fill:#FEC4A7;" d="M323.347,349.337c-0.026-2.738,0.373-5.678,1.384-8.803c0,0,2.029-5.721-2.369-8.207
						c0,0-8.79-1.369-10.319,11.021c-0.33,2.67-0.686,6.003-0.916,9.631C314.131,353.35,318.686,353.017,323.347,349.337z"/>
					<path style="fill:#857EB2;" d="M338.586,368.29c0,0-15.103-4.916-15.239-18.953c-4.66,3.681-9.216,4.014-12.221,3.642
						c-0.615,9.694-0.324,21.507,3.807,28.5c2.159,3.654,6.7,5.131,10.602,3.462l14.962-6.397L338.586,368.29z"/>
				</g>
				<polyline style="fill:none;stroke:#291342;stroke-width:0.5;stroke-miterlimit:10;" points="343.688,395.294 346.992,395.165 
					353.199,403.989 				"/>
				<path style="fill:none;stroke:#291342;stroke-width:0.5;stroke-miterlimit:10;" d="M320.522,358.161
					c-0.995,2.353-2.704,5.136-5.223,5.15"/>
				<path style="fill:none;stroke:#291342;stroke-width:0.5;stroke-miterlimit:10;" d="M333.037,392.81c0,0-2.255-6.199,1.83-9.902"
					/>
				<path style="fill:#FF902C;" d="M348.663,312.747c0,0,2.252,1.461,0.158,3.573c-3.015,3.04-4.944,13.433-3.396,16.923
					c1.549,3.49,3.097,11.003-1.548,15.553c0,0,4.083,10.123-3.942,14.516c0,0,3.66,10.869-5.35,11.573
					c0,0-14.078,1.208-11.826-16.078c0,0-4.646-10.247,1.971-18.272c0,0-5.631-4.62-1.126-10.264c0,0-2.112,5.035-6.617,5.045
					c-4.505,0.01-5.445,12.53-5.445,12.53s-9.548-5.155-0.045-14.603c0,0-1.974-14.107,11.122-14.952c0,0,5.527-0.201,7.884-9.432
					C332.192,302.241,344.581,304.106,348.663,312.747z"/>
				<path style="fill:none;stroke:#291342;stroke-width:0.5;stroke-miterlimit:10;" d="M345.042,379.118c0,0-0.687-5.079-6.909-5.36
					"/>
			</g>
			<g>
				<path style="fill:#291342;" d="M436.214,329.896c0,0,0.749,12.022,5.043,23.13c-9.489,4.795-13.128-3.036-21.416-2.43
					c3.109-4.949,5.792-11.302,5.613-24.706L436.214,329.896z"/>
				<path style="fill:#B2B9D3;" d="M439.889,335.043l13.555,9.547c2.372,1.671,6.601,5.024,5.282,12.252
					c-0.113,15.173,2.351,21.138-1.884,23.664c-10.266,4.161-21.381-0.484-21.381-0.484s-3.54-2.898-3.258-11.732
					c-8.447-5.646-4.701-23.533-4.701-23.533S430.175,333.495,439.889,335.043z"/>
				<path style="fill:#FEC4A7;" d="M429.752,332.282c0.422,0.227,0.526,9.757,0.526,9.757s-4.33,11.543,1.914,14.262
					c5.819,2.534,12.228-4.177,9.084-12.764c-4.018-10.976-4.485-14.791-4.485-14.791L429.752,332.282z"/>
				<path style="fill:#FEAB81;" d="M450.126,343.257c0,0-5.451,0.034-8.625,8.282l-7.676-15.088l6.063-1.408L450.126,343.257z"/>
				<path style="fill:#FEC4A7;" d="M422.487,328.453c0.917,4.383,4.143,7.417,7.207,6.776c3.064-0.641,4.804-4.713,3.888-9.096
					c-0.917-4.383-4.143-7.417-7.207-6.777C423.311,319.997,421.57,324.07,422.487,328.453z"/>
				<path style="fill:#291342;" d="M426.374,319.356c0,0-0.845,4.424,4.504,7.936c0,0,2.253,11.833,0.845,23.658
					c10.382,2.295,11.966-6.194,20.146-7.66c-4.238-4.025-8.03-11.631-11.559-22.545
					C440.311,320.746,436.369,307.591,426.374,319.356z"/>
				<path style="fill:#291342;" d="M422.249,325.891c0,0-2.773-3.668,0.605-6.62c0,0,4.648-8.16,10.972-4.806l-9.78,6.281
					C424.046,320.746,422.714,322.795,422.249,325.891z"/>
				<path style="fill:#FEC4A7;" d="M453.385,345.872c0,0-4.716-0.815-7.161,7.374c-2.1,7.031-7.998,23.192-7.998,23.192l-6.112-2.68
					l-0.806,5.36c0,0,10.668,16.047,19.561-1.418C460.518,358.751,459.332,347.675,453.385,345.872z"/>
				<path style="fill:#FEC4A7;" d="M427.502,344.757c-4.225,9.995-2.525,24.451-1.176,31.681c1.708,9.156,11.9,0,11.9,0l1.36-3.763
					l-3.076-0.659h-4.229l-0.079-3.725C424.894,363.155,427.502,352.5,427.502,344.757z"/>
				<path style="fill:none;stroke:#291342;stroke-width:0.5;stroke-miterlimit:10;" d="M439.586,372.674c0,0,1.147,1.859-1.36,3.763
					c-2.508,1.904-5.855,4.069-5.855,4.069"/>
				<path style="fill:none;stroke:#291342;stroke-width:0.5;stroke-miterlimit:10;" d="M432.281,372.015c0,0-1.866-1.039-3.464,0"/>
			</g>
			
				<line style="fill:none;stroke:#291342;stroke-width:0.5;stroke-miterlimit:10;" x1="412.256" y1="395.187" x2="412.256" y2="390.86"/>
		</g>
	</g>
</g>
<g id="DESIGNED_BY_FREEPIK">
	<g>
		<g id="XMLID_319_">
			<g id="XMLID_338_">
				<path id="XMLID_346_" style="fill:#1D262D;" d="M260.104,475.465c-0.432,0.443-0.803,0.931-1.108,1.453l-0.465-0.241
					c-0.067-0.298-0.349-0.503-0.659-0.466c-0.331,0.039-0.568,0.339-0.529,0.67s0.339,0.568,0.67,0.529
					c0.065-0.008,0.127-0.026,0.184-0.052l0.451,0.234c-0.251,0.554-0.433,1.139-0.539,1.744l0.746,0.132
					c0.23-1.306,0.85-2.507,1.792-3.473L260.104,475.465z"/>
				<path id="XMLID_345_" style="fill:#1D262D;" d="M265.592,473.163c-0.171,0-0.341,0.006-0.51,0.017l-0.074-0.626
					c0.188-0.149,0.296-0.389,0.266-0.645c-0.046-0.393-0.402-0.674-0.795-0.628s-0.674,0.402-0.628,0.795
					c0.03,0.254,0.189,0.461,0.405,0.564l0.073,0.624c-0.714,0.116-1.403,0.332-2.06,0.646l0.327,0.684
					c0.934-0.447,1.942-0.673,2.995-0.673c0.496,0,0.993,0.053,1.475,0.158l0.161-0.741
					C266.693,473.222,266.142,473.163,265.592,473.163z"/>
				<path id="XMLID_344_" style="fill:#1D262D;" d="M272.194,475.711c0.331-0.04,0.566-0.341,0.525-0.672
					c-0.04-0.331-0.341-0.566-0.672-0.526c-0.309,0.038-0.535,0.304-0.53,0.609l-0.416,0.363c-0.418-0.43-0.89-0.813-1.408-1.139
					l-0.404,0.641c1.134,0.715,2.021,1.726,2.563,2.925l0.691-0.313c-0.251-0.554-0.568-1.072-0.942-1.545l0.402-0.351
					C272.065,475.716,272.129,475.719,272.194,475.711z"/>
				<path id="XMLID_343_" style="fill:#1D262D;" d="M265.044,483.372c-0.386,0.023-0.775,0.035-1.157,0.035
					c-0.88,0-1.733-0.061-2.478-0.179c-0.39-0.062-0.846-0.155-1.27-0.292c1.046,1.861,3.069,3.125,5.388,3.125
					c2.855,0,5.262-1.916,5.95-4.504c-0.682,0.449-1.505,0.825-2.459,1.123C267.839,483.047,266.464,483.286,265.044,483.372z"/>
				<path id="XMLID_339_" style="fill:#1D262D;" d="M265.592,474.68c-3.352,0-6.08,2.666-6.08,5.943
					c0,0.426,0.046,0.849,0.137,1.261c0.674,0.483,2.706,0.89,5.348,0.731c2.879-0.173,5.297-0.957,6.672-2.159
					c-0.005-0.195-0.021-0.39-0.045-0.582C271.244,476.913,268.65,474.68,265.592,474.68z M263.432,481.194
					c-1.02,0-1.85-0.83-1.85-1.85c0-1.02,0.83-1.85,1.85-1.85c1.02,0,1.85,0.83,1.85,1.85
					C265.282,480.365,264.452,481.194,263.432,481.194z M268.17,480.286c-0.75,0-1.36-0.61-1.36-1.36s0.61-1.361,1.36-1.361
					c0.75,0,1.361,0.61,1.361,1.361S268.92,480.286,268.17,480.286z"/>
			</g>
			<path id="XMLID_336_" style="fill:#1D262D;" d="M281.595,476.547c-0.295-0.116-0.806-0.309-1.382-0.237
				c-0.551,0.069-0.844,0.341-0.844,1.007v0.866h2.228v1.717h-2.228v5.455h-1.932v-5.455h-1.34v-1.717h1.34v-0.888
				c0-1.68,0.896-2.783,2.568-2.783c0.642,0,1.157,0.122,1.59,0.308L281.595,476.547z"/>
			<path id="XMLID_334_" style="fill:#1D262D;" d="M286.298,479.879c-0.177-0.03-0.358-0.046-0.526-0.046
				c-0.896,0-1.51,0.548-1.51,1.614v3.908h-1.932v-7.172h1.873v0.785c0.451-0.673,1.14-0.977,2.021-0.977
				c0.414,0,0.848,0.128,1.094,0.337L286.298,479.879z"/>
			<path id="XMLID_331_" style="fill:#1D262D;" d="M293.965,481.757c0,0.222-0.015,0.489-0.037,0.651h-5.085
				c0.207,1.036,0.933,1.488,1.843,1.488c0.622,0,1.295-0.252,1.813-0.688l1.132,1.243c-0.814,0.748-1.85,1.088-3.057,1.088
				c-2.198,0-3.723-1.495-3.723-3.753c0-2.258,1.48-3.797,3.627-3.797C292.544,477.99,293.958,479.522,293.965,481.757z
				 M288.851,481.091h3.175c-0.177-0.918-0.733-1.436-1.562-1.436C289.554,479.655,289.021,480.203,288.851,481.091z"/>
			<path id="XMLID_328_" style="fill:#1D262D;" d="M301.618,481.757c0,0.222-0.015,0.489-0.037,0.651h-5.085
				c0.207,1.036,0.932,1.488,1.843,1.488c0.622,0,1.295-0.252,1.813-0.688l1.132,1.243c-0.814,0.748-1.85,1.088-3.057,1.088
				c-2.198,0-3.723-1.495-3.723-3.753c0-2.258,1.48-3.797,3.627-3.797C300.197,477.99,301.611,479.522,301.618,481.757z
				 M296.504,481.091h3.175c-0.178-0.918-0.733-1.436-1.562-1.436C297.207,479.655,296.674,480.203,296.504,481.091z"/>
			<path id="XMLID_325_" style="fill:#1D262D;" d="M309.964,481.764c0,2.154-1.495,3.775-3.471,3.775
				c-0.962,0-1.643-0.378-2.109-0.933v3.708h-1.924v-10.133h1.887v0.792c0.466-0.585,1.155-0.984,2.139-0.984
				C308.469,477.99,309.964,479.61,309.964,481.764z M304.287,481.764c0,1.132,0.747,1.976,1.843,1.976
				c1.14,0,1.85-0.881,1.85-1.976c0-1.095-0.71-1.976-1.85-1.976C305.035,479.788,304.287,480.632,304.287,481.764z"/>
			<path id="XMLID_322_" style="fill:#1D262D;" d="M313.068,475.836c0,0.696-0.54,1.229-1.236,1.229
				c-0.696,0-1.229-0.533-1.229-1.229c0-0.696,0.533-1.243,1.229-1.243C312.527,474.592,313.068,475.14,313.068,475.836z
				 M312.809,485.354h-1.932v-7.172h1.932V485.354z"/>
			<path id="XMLID_320_" style="fill:#1D262D;" d="M316.032,480.736l2.702-2.554h2.368l-3.479,3.375l3.501,3.797h-2.376
				l-2.716-2.901v2.901H314.1v-10.658h1.932V480.736z"/>
		</g>
		<g>
			<path style="fill:#1D262D;" d="M184.412,485.289v-1.055c-0.527,0.718-1.391,1.23-2.387,1.23c-1.846,0-3.149-1.406-3.149-3.706
				c0-2.256,1.289-3.721,3.149-3.721c0.952,0,1.816,0.469,2.387,1.245v-3.765h1.099v9.77H184.412z M184.412,483.37v-3.208
				c-0.395-0.615-1.245-1.143-2.124-1.143c-1.421,0-2.27,1.172-2.27,2.739c0,1.567,0.85,2.724,2.27,2.724
				C183.168,484.483,184.017,483.986,184.412,483.37z"/>
			<path style="fill:#1D262D;" d="M186.932,481.744c0-2.051,1.465-3.706,3.486-3.706c2.139,0,3.398,1.67,3.398,3.794v0.279h-5.727
				c0.088,1.333,1.025,2.446,2.549,2.446c0.805,0,1.626-0.322,2.182-0.894l0.527,0.718c-0.703,0.703-1.655,1.084-2.812,1.084
				C188.44,485.465,186.932,483.956,186.932,481.744z M190.403,478.947c-1.509,0-2.256,1.274-2.314,2.358h4.643
				C192.718,480.25,192.015,478.947,190.403,478.947z"/>
			<path style="fill:#1D262D;" d="M194.607,484.351l0.571-0.791c0.469,0.542,1.362,1.011,2.329,1.011c1.084,0,1.67-0.513,1.67-1.216
				c0-1.714-4.38-0.659-4.38-3.281c0-1.098,0.952-2.036,2.636-2.036c1.201,0,2.051,0.454,2.622,1.026l-0.513,0.762
				c-0.424-0.513-1.201-0.894-2.109-0.894c-0.967,0-1.567,0.483-1.567,1.113c0,1.552,4.38,0.527,4.38,3.281
				c0,1.187-0.952,2.138-2.783,2.138C196.306,485.465,195.325,485.113,194.607,484.351z"/>
			<path style="fill:#1D262D;" d="M201.477,476.471c0-0.41,0.337-0.747,0.732-0.747c0.41,0,0.747,0.337,0.747,0.747
				c0,0.41-0.337,0.732-0.747,0.732C201.814,477.203,201.477,476.881,201.477,476.471z M201.667,485.289v-7.075h1.099v7.075H201.667
				z"/>
			<path style="fill:#1D262D;" d="M204.582,487.105l0.556-0.82c0.586,0.703,1.289,0.967,2.3,0.967c1.172,0,2.27-0.571,2.27-2.124
				v-1.011c-0.513,0.718-1.377,1.26-2.373,1.26c-1.845,0-3.149-1.377-3.149-3.662c0-2.27,1.289-3.677,3.149-3.677
				c0.952,0,1.802,0.469,2.373,1.245v-1.069h1.098v6.87c0,2.344-1.641,3.076-3.369,3.076
				C206.237,488.16,205.417,487.926,204.582,487.105z M209.709,483.253v-3.091c-0.381-0.615-1.23-1.143-2.109-1.143
				c-1.421,0-2.27,1.128-2.27,2.695c0,1.553,0.849,2.695,2.27,2.695C208.478,484.41,209.328,483.868,209.709,483.253z"/>
			<path style="fill:#1D262D;" d="M217.413,485.289v-4.629c0-1.245-0.63-1.641-1.582-1.641c-0.865,0-1.685,0.527-2.095,1.099v5.17
				h-1.099v-7.075h1.099v1.025c0.498-0.586,1.464-1.201,2.519-1.201c1.48,0,2.256,0.747,2.256,2.285v4.966H217.413z"/>
			<path style="fill:#1D262D;" d="M219.932,481.744c0-2.051,1.465-3.706,3.486-3.706c2.139,0,3.398,1.67,3.398,3.794v0.279h-5.727
				c0.088,1.333,1.025,2.446,2.549,2.446c0.806,0,1.626-0.322,2.183-0.894l0.527,0.718c-0.703,0.703-1.655,1.084-2.812,1.084
				C221.441,485.465,219.932,483.956,219.932,481.744z M223.404,478.947c-1.509,0-2.256,1.274-2.314,2.358h4.643
				C225.718,480.25,225.015,478.947,223.404,478.947z"/>
			<path style="fill:#1D262D;" d="M233.35,485.289v-1.055c-0.527,0.718-1.392,1.23-2.388,1.23c-1.846,0-3.149-1.406-3.149-3.706
				c0-2.256,1.289-3.721,3.149-3.721c0.952,0,1.817,0.469,2.388,1.245v-3.765h1.098v9.77H233.35z M233.35,483.37v-3.208
				c-0.396-0.615-1.245-1.143-2.124-1.143c-1.421,0-2.27,1.172-2.27,2.739c0,1.567,0.849,2.724,2.27,2.724
				C232.105,484.483,232.954,483.986,233.35,483.37z"/>
			<path style="fill:#1D262D;" d="M239.692,485.289v-9.77h1.098v3.765c0.572-0.776,1.421-1.245,2.388-1.245
				c1.845,0,3.149,1.465,3.149,3.721c0,2.299-1.304,3.706-3.149,3.706c-0.996,0-1.86-0.513-2.388-1.23v1.055H239.692z
				 M242.9,484.483c1.436,0,2.285-1.157,2.285-2.724c0-1.568-0.85-2.739-2.285-2.739c-0.864,0-1.728,0.527-2.109,1.143v3.208
				C241.171,483.986,242.036,484.483,242.9,484.483z"/>
			<path style="fill:#1D262D;" d="M247.528,487.061c0.161,0.073,0.425,0.117,0.601,0.117c0.483,0,0.805-0.161,1.055-0.747
				l0.469-1.069l-2.959-7.148h1.187l2.358,5.8l2.344-5.8h1.201l-3.545,8.51c-0.425,1.025-1.143,1.421-2.08,1.435
				c-0.234,0-0.601-0.044-0.805-0.103L247.528,487.061z"/>
		</g>
	</g>
</g>
</svg>
